HIERARCHY
ROOT Hips
{
	OFFSET 0.000000 71.427986 0.000000
	CHANNELS 6 Xposition Yposition Zposition Xrotation Yrotation Zrotation
	JOINT Pelvis
	{
		OFFSET 0.000000 0.000000 0.000000
		CHANNELS 3 Xrotation Yrotation Zrotation
		JOINT LeftUpLeg
		{
			OFFSET 6.797100 -2.508499 -1.318700
			CHANNELS 3 Xrotation Yrotation Zrotation
			JOINT LeftLeg
			{
				OFFSET 0.069008 -29.241863 0.690200
				CHANNELS 3 Xrotation Yrotation Zrotation
				JOINT LeftFoot
				{
					OFFSET -0.069008 -29.568123 -0.266800
					CHANNELS 3 Xrotation Yrotation Zrotation
					JOINT LeftToeBase
					{
						OFFSET 3.145500 -8.631000 16.059900
						CHANNELS 3 Xrotation Yrotation Zrotation
						End Site
						{
							OFFSET 0.000000 18.501587 0.000000
						}
					}
				}
			}
			JOINT Left_ShortSleeve
			{
				OFFSET 0.265923 -10.480953 1.153800
				CHANNELS 3 Xrotation Yrotation Zrotation
				End Site
				{
					OFFSET 1.725763 19.823879 0.000000
				}
			}
		}
		JOINT RightUpLeg
		{
			OFFSET -6.797100 -2.508499 -1.318700
			CHANNELS 3 Xrotation Yrotation Zrotation
			JOINT RightLeg
			{
				OFFSET -0.082453 -29.241932 0.688000
				CHANNELS 3 Xrotation Yrotation Zrotation
				JOINT RightFoot
				{
					OFFSET 0.082453 -29.568058 -0.264600
					CHANNELS 3 Xrotation Yrotation Zrotation
					JOINT RightToeBase
					{
						OFFSET -3.115300 -8.682800 16.113400
						CHANNELS 3 Xrotation Yrotation Zrotation
						End Site
						{
							OFFSET 0.000000 18.567114 0.000000
						}
					}
				}
			}
			JOINT Right_ShortSleeve
			{
				OFFSET -0.265923 -10.480953 1.153800
				CHANNELS 3 Xrotation Yrotation Zrotation
				End Site
				{
					OFFSET -1.725766 19.823910 0.000000
				}
			}
		}
	}
	JOINT Spine
	{
		OFFSET 0.000000 13.368103 0.470500
		CHANNELS 3 Xrotation Yrotation Zrotation
		JOINT Spine1
		{
			OFFSET 0.147000 13.837402 0.538800
			CHANNELS 3 Xrotation Yrotation Zrotation
			JOINT Spine2
			{
				OFFSET 0.168000 16.242897 -1.435500
				CHANNELS 3 Xrotation Yrotation Zrotation
				JOINT Neck
				{
					OFFSET 0.217200 18.631500 -1.679100
					CHANNELS 3 Xrotation Yrotation Zrotation
					JOINT Head
					{
						OFFSET 0.000000 6.599396 1.385900
						CHANNELS 3 Xrotation Yrotation Zrotation
						JOINT Hat
						{
							OFFSET -0.532200 27.220596 -10.096100
							CHANNELS 3 Xrotation Yrotation Zrotation
							End Site
							{
								OFFSET 0.000000 22.029861 0.000000
							}
						}
						JOINT HairD
						{
							OFFSET -10.777400 17.437393 -1.325900
							CHANNELS 3 Xrotation Yrotation Zrotation
							JOINT HairD1
							{
								OFFSET -3.290299 -11.051193 1.062200
								CHANNELS 3 Xrotation Yrotation Zrotation
								End Site
								{
									OFFSET 0.000000 11.579437 0.000000
								}
							}
						}
						JOINT HairB
						{
							OFFSET -10.777400 17.437393 1.467900
							CHANNELS 3 Xrotation Yrotation Zrotation
							JOINT HairB1
							{
								OFFSET -1.561200 -12.956299 3.590200
								CHANNELS 3 Xrotation Yrotation Zrotation
								End Site
								{
									OFFSET 0.000000 13.534866 0.000000
								}
							}
						}
						JOINT HairA
						{
							OFFSET 9.713100 17.437393 1.467900
							CHANNELS 3 Xrotation Yrotation Zrotation
							JOINT HairA1
							{
								OFFSET 1.561200 -12.956299 3.590200
								CHANNELS 3 Xrotation Yrotation Zrotation
								End Site
								{
									OFFSET 0.000000 13.534866 0.000000
								}
							}
						}
						JOINT HairC
						{
							OFFSET 9.713100 17.437393 -1.325900
							CHANNELS 3 Xrotation Yrotation Zrotation
							JOINT HairC1
							{
								OFFSET 3.290300 -11.051193 1.062200
								CHANNELS 3 Xrotation Yrotation Zrotation
								End Site
								{
									OFFSET 0.000000 11.579437 0.000000
								}
							}
						}
					}
				}
				JOINT LeftShoulder
				{
					OFFSET 5.101800 15.108002 -2.763700
					CHANNELS 3 Xrotation Yrotation Zrotation
					JOINT LeftArm
					{
						OFFSET 9.825497 2.506317 -1.597400
						CHANNELS 3 Xrotation Yrotation Zrotation
						JOINT LeftForeArm
						{
							OFFSET 21.966244 0.000000 0.000000
							CHANNELS 3 Xrotation Yrotation Zrotation
							JOINT LeftHand
							{
								OFFSET 33.879036 0.000000 0.000000
								CHANNELS 3 Xrotation Yrotation Zrotation
								JOINT LeftHandThumb1
								{
									OFFSET 6.715286 -2.359680 3.363841
									CHANNELS 3 Xrotation Yrotation Zrotation
									JOINT LeftHandThumb2
									{
										OFFSET 2.507072 -1.447464 1.447461
										CHANNELS 3 Xrotation Yrotation Zrotation
										JOINT LeftHandThumb3
										{
											OFFSET 2.898338 -1.673355 1.673357
											CHANNELS 3 Xrotation Yrotation Zrotation
											End Site
											{
												OFFSET -0.295959 3.727692 -0.131651
											}
										}
									}
								}
								JOINT LeftHandIndex1
								{
									OFFSET 14.190811 -0.254547 3.840278
									CHANNELS 3 Xrotation Yrotation Zrotation
									JOINT LeftHandIndex2
									{
										OFFSET 3.551727 0.000000 -0.000000
										CHANNELS 3 Xrotation Yrotation Zrotation
										JOINT LeftHandIndex3
										{
											OFFSET 2.894196 0.000000 0.000000
											CHANNELS 3 Xrotation Yrotation Zrotation
											End Site
											{
												OFFSET -1.000603 2.690872 0.366626
											}
										}
									}
								}
								JOINT LeftHandMiddle1
								{
									OFFSET 13.776489 0.000000 0.000000
									CHANNELS 3 Xrotation Yrotation Zrotation
									JOINT LeftHandMiddle2
									{
										OFFSET 3.438232 0.000000 0.000000
										CHANNELS 3 Xrotation Yrotation Zrotation
										JOINT LeftHandMiddle3
										{
											OFFSET 3.691551 0.000000 0.000000
											CHANNELS 3 Xrotation Yrotation Zrotation
											End Site
											{
												OFFSET -1.082298 3.499527 0.457670
											}
										}
									}
								}
								JOINT LeftHandRing1
								{
									OFFSET 13.966164 -0.268127 -3.067488
									CHANNELS 3 Xrotation Yrotation Zrotation
									JOINT LeftHandRing2
									{
										OFFSET 3.162567 0.000000 0.000000
										CHANNELS 3 Xrotation Yrotation Zrotation
										JOINT LeftHandRing3
										{
											OFFSET 3.324348 0.000000 0.000000
											CHANNELS 3 Xrotation Yrotation Zrotation
											End Site
											{
												OFFSET -0.861900 3.184998 0.405154
											}
										}
									}
								}
								JOINT LeftHandPinky1
								{
									OFFSET 13.131393 -0.168503 -5.746925
									CHANNELS 3 Xrotation Yrotation Zrotation
									JOINT LeftHandPinky2
									{
										OFFSET 2.849182 0.000000 0.000000
										CHANNELS 3 Xrotation Yrotation Zrotation
										JOINT LeftHandPinky3
										{
											OFFSET 2.805038 0.000000 0.000000
											CHANNELS 3 Xrotation Yrotation Zrotation
											End Site
											{
												OFFSET -0.882500 2.642609 0.325652
											}
										}
									}
								}
							}
							JOINT Left_Sleeve
							{
								OFFSET 6.592125 -0.646545 0.805568
								CHANNELS 3 Xrotation Yrotation Zrotation
								End Site
								{
									OFFSET -0.000179 20.275787 -0.000000
								}
							}
						}
					}
				}
				JOINT RightShoulder
				{
					OFFSET -5.731700 15.108002 -2.763700
					CHANNELS 3 Xrotation Yrotation Zrotation
					JOINT RightArm
					{
						OFFSET -9.825497 2.506317 -1.597400
						CHANNELS 3 Xrotation Yrotation Zrotation
						JOINT RightForeArm
						{
							OFFSET -21.966242 0.000000 0.000000
							CHANNELS 3 Xrotation Yrotation Zrotation
							JOINT RightHand
							{
								OFFSET -33.879032 0.000000 0.000000
								CHANNELS 3 Xrotation Yrotation Zrotation
								JOINT RightHandThumb1
								{
									OFFSET -6.715286 -2.359680 3.363841
									CHANNELS 3 Xrotation Yrotation Zrotation
									JOINT RightHandThumb2
									{
										OFFSET -2.507072 -1.447464 1.447461
										CHANNELS 3 Xrotation Yrotation Zrotation
										JOINT RightHandThumb3
										{
											OFFSET -2.898338 -1.673355 1.673357
											CHANNELS 3 Xrotation Yrotation Zrotation
											End Site
											{
												OFFSET 0.295959 3.727692 -0.131651
											}
										}
									}
								}
								JOINT RightHandIndex1
								{
									OFFSET -14.190811 -0.254547 3.840278
									CHANNELS 3 Xrotation Yrotation Zrotation
									JOINT RightHandIndex2
									{
										OFFSET -3.551727 0.000000 -0.000000
										CHANNELS 3 Xrotation Yrotation Zrotation
										JOINT RightHandIndex3
										{
											OFFSET -2.894196 0.000000 0.000000
											CHANNELS 3 Xrotation Yrotation Zrotation
											End Site
											{
												OFFSET 1.000603 2.690872 0.366626
											}
										}
									}
								}
								JOINT RightHandMiddle1
								{
									OFFSET -13.776489 0.000000 0.000000
									CHANNELS 3 Xrotation Yrotation Zrotation
									JOINT RightHandMiddle2
									{
										OFFSET -3.438232 0.000000 0.000000
										CHANNELS 3 Xrotation Yrotation Zrotation
										JOINT RightHandMiddle3
										{
											OFFSET -3.691551 0.000000 0.000000
											CHANNELS 3 Xrotation Yrotation Zrotation
											End Site
											{
												OFFSET 1.082298 3.499527 0.457670
											}
										}
									}
								}
								JOINT RightHandRing1
								{
									OFFSET -13.966164 -0.268127 -3.067488
									CHANNELS 3 Xrotation Yrotation Zrotation
									JOINT RightHandRing2
									{
										OFFSET -3.162567 0.000000 0.000000
										CHANNELS 3 Xrotation Yrotation Zrotation
										JOINT RightHandRing3
										{
											OFFSET -3.324348 0.000000 0.000000
											CHANNELS 3 Xrotation Yrotation Zrotation
											End Site
											{
												OFFSET 0.861900 3.184998 0.405154
											}
										}
									}
								}
								JOINT RightHandPinky1
								{
									OFFSET -13.131393 -0.168503 -5.746925
									CHANNELS 3 Xrotation Yrotation Zrotation
									JOINT RightHandPinky2
									{
										OFFSET -2.849182 0.000000 0.000000
										CHANNELS 3 Xrotation Yrotation Zrotation
										JOINT RightHandPinky3
										{
											OFFSET -2.805038 0.000000 0.000000
											CHANNELS 3 Xrotation Yrotation Zrotation
											End Site
											{
												OFFSET 0.882500 2.642609 0.325652
											}
										}
									}
								}
							}
							JOINT Right_Sleeve
							{
								OFFSET -6.592125 -0.646545 0.805568
								CHANNELS 3 Xrotation Yrotation Zrotation
								End Site
								{
									OFFSET 0.000179 20.275787 -0.000000
								}
							}
						}
					}
				}
				JOINT Bind_Right_JacketString
				{
					OFFSET -3.534800 11.969597 7.200700
					CHANNELS 3 Xrotation Yrotation Zrotation
					JOINT Bind_Right_JacketString1
					{
						OFFSET -0.319900 -6.102600 2.794100
						CHANNELS 3 Xrotation Yrotation Zrotation
						End Site
						{
							OFFSET 0.000000 6.719452 0.000000
						}
					}
				}
				JOINT Bind_Left_JacketString
				{
					OFFSET 2.904800 11.969597 7.200700
					CHANNELS 3 Xrotation Yrotation Zrotation
					JOINT Bind_Left_JacketString1
					{
						OFFSET 0.364800 -5.904503 3.186800
						CHANNELS 3 Xrotation Yrotation Zrotation
						End Site
						{
							OFFSET 0.000000 6.719513 0.000000
						}
					}
				}
				JOINT HairE
				{
					OFFSET 5.915200 17.612701 -11.592200
					CHANNELS 3 Xrotation Yrotation Zrotation
					JOINT HairE1
					{
						OFFSET 0.289200 -7.171898 -1.284500
						CHANNELS 3 Xrotation Yrotation Zrotation
						End Site
						{
							OFFSET 0.000000 7.291756 0.000000
						}
					}
				}
				JOINT HairF
				{
					OFFSET -0.864800 17.612701 -11.592200
					CHANNELS 3 Xrotation Yrotation Zrotation
					JOINT HairF1
					{
						OFFSET 0.000000 -14.087097 -2.127501
						CHANNELS 3 Xrotation Yrotation Zrotation
						End Site
						{
							OFFSET 0.000000 14.246841 0.000000
						}
					}
				}
				JOINT HairG
				{
					OFFSET -8.087700 17.612701 -11.592200
					CHANNELS 3 Xrotation Yrotation Zrotation
					JOINT HairG1
					{
						OFFSET -0.293600 -6.081398 -0.910100
						CHANNELS 3 Xrotation Yrotation Zrotation
						End Site
						{
							OFFSET 0.000000 6.156120 0.000000
						}
					}
				}
			}
		}
	}
	JOINT Pouch
	{
		OFFSET 0.000000 4.394501 10.847300
		CHANNELS 3 Xrotation Yrotation Zrotation
		End Site
		{
			OFFSET 0.000000 21.880577 0.000000
		}
	}
	JOINT Bag
	{
		OFFSET -13.229000 4.813004 -0.593300
		CHANNELS 3 Xrotation Yrotation Zrotation
		End Site
		{
			OFFSET 0.000000 21.880577 0.000000
		}
	}
	JOINT OccupyGuyFacialAnim_Joint
	{
		OFFSET 1.000000 -70.206398 -1.655000
		CHANNELS 3 Xrotation Yrotation Zrotation
		End Site
		{
			OFFSET 0.000000 21.880577 0.000000
		}
	}
}
MOTION
Frames: 4
Frame Time: 0.016667
5.663881 55.044624 37.329071 -14.555908 -41.858329 -8.630859 0.000001 -0.000002 0.000000 -42.927227 2.647885 27.952635 59.683675 -6.343245 6.969865 -9.198344 -9.455706 -22.130438 0.000000 -0.000003 -0.000000 -0.000000 0.000000 0.000001 -27.924535 -4.136985 -38.420661 84.962806 5.208462 -10.030771 -22.019688 -10.327351 16.387504 0.000001 0.000000 0.000001 -0.000002 -0.000001 -0.000003 22.970191 5.635670 -9.718599 0.646537 0.929546 0.134783 0.636327 0.960704 0.115371 4.340620 13.104368 0.961784 1.464761 20.711695 -6.151121 0.000001 0.000000 0.000000 0.000001 0.000000 0.000000 0.000001 0.000000 0.000000 0.000001 0.000000 0.000000 0.000001 -0.000000 0.000000 0.000001 0.000000 0.000000 0.000001 -0.000000 0.000000 0.000001 0.000000 0.000000 0.000001 0.000000 0.000000 0.727745 3.026999 -7.324551 -54.688594 2.382170 -44.353411 0.000003 -113.998582 0.000020 -8.744108 -11.473584 -10.700562 -6.141202 -11.690805 -6.761693 9.914135 42.595512 3.409875 -0.000001 -0.000000 -0.000000 0.255313 3.378233 -45.814341 5.654072 5.847740 -88.067435 0.000002 0.000002 -0.000002 -0.461478 3.841598 -39.722679 6.450750 5.820348 -95.892864 -0.000000 -0.000001 0.000000 0.469721 4.966809 -39.799434 8.181045 5.368629 -113.502998 -0.000002 0.000003 -0.000001 -3.762428 9.063703 -45.253818 5.342526 5.829005 -85.005311 -0.000000 -0.000001 0.000003 -0.000000 -0.000001 -0.000001 2.812980 13.874458 -5.932526 -45.155835 21.957421 84.432941 0.000110 114.502555 -0.000113 1.729117 20.759646 7.523806 -7.341082 13.749663 7.412329 9.855793 -44.489089 -3.903243 -0.000002 0.000003 0.000002 -0.124378 -2.384805 45.108868 4.500578 -4.654529 88.071157 -0.000001 0.000001 0.000002 -0.761621 -2.932918 39.031058 5.133891 -4.632762 95.881635 -0.000000 -0.000001 0.000001 0.154759 -4.068801 39.122671 6.509727 -4.273610 113.462870 -0.000002 -0.000001 -0.000001 -4.198875 -8.025534 44.637776 4.252926 -4.639635 85.014832 -0.000003 0.000000 0.000001 0.000002 0.000003 0.000001 -0.000000 0.000002 0.000000 0.000002 -0.000005 0.000001 -0.000000 0.000002 -0.000001 -0.000000 0.000002 -0.000001 -0.000000 0.000002 0.000000 0.000002 -0.000005 0.000001 -0.000000 0.000002 -0.000001 -0.000000 0.000002 -0.000001 -0.000000 0.000002 0.000000 0.000002 -0.000005 0.000001 0.000001 -0.000002 0.000000 0.000001 -0.000002 0.000000 0.000001 -0.000002 0.000000 
5.061486 55.385109 36.148590 -13.769827 -41.771391 -7.621308 0.000000 0.000001 0.000000 -41.908692 3.159089 28.160935 55.464835 -6.905765 6.949075 -6.829811 -9.577526 -23.244934 -0.000000 -0.000002 -0.000000 -0.000000 -0.000001 -0.000001 -26.636753 -5.542571 -37.233714 82.923715 6.477632 -10.034312 -25.570183 -13.046289 16.952473 -0.000001 0.000000 0.000001 0.000005 -0.000001 -0.000000 21.193729 6.311853 -8.645999 1.010368 1.004088 -0.234457 1.004583 1.022893 -0.248461 4.766929 13.065343 0.442462 1.896276 20.295895 -6.198564 0.000002 0.000000 -0.000000 0.000002 0.000000 -0.000000 0.000002 0.000000 -0.000000 0.000002 0.000000 -0.000000 0.000001 -0.000000 0.000000 0.000002 0.000000 -0.000000 0.000001 -0.000000 0.000000 0.000002 0.000000 -0.000000 0.000002 0.000000 -0.000000 0.722457 3.377161 -7.482011 -53.816102 2.392662 -44.340618 0.000042 -114.488526 0.000043 -8.831644 -10.561578 -10.712627 -6.141202 -11.690809 -6.761695 9.914139 42.595512 3.409865 -0.000000 0.000001 -0.000001 0.255316 3.378233 -45.814344 5.654072 5.847739 -88.067441 0.000002 0.000001 0.000003 -0.461475 3.841597 -39.722679 6.450751 5.820351 -95.892871 -0.000000 0.000000 -0.000005 0.469723 4.966807 -39.799430 8.181043 5.368631 -113.503004 -0.000001 0.000001 0.000000 -3.762427 9.063705 -45.253825 5.342524 5.829005 -85.005311 -0.000002 0.000001 -0.000002 0.000000 -0.000002 -0.000000 2.844846 14.234611 -6.010195 -45.524024 21.500534 84.730204 -0.000040 114.409746 0.000014 1.034118 19.977810 8.075896 -7.341085 13.749667 7.412329 9.855785 -44.489089 -3.903248 0.000002 -0.000003 0.000002 -0.124378 -2.384803 45.108868 4.500576 -4.654528 88.071164 0.000001 -0.000000 0.000004 -0.761625 -2.932914 39.031058 5.133892 -4.632758 95.881649 0.000001 -0.000001 -0.000003 0.154758 -4.068800 39.122668 6.509728 -4.273610 113.462863 0.000000 -0.000001 -0.000002 -4.198876 -8.025533 44.637776 4.252927 -4.639638 85.014832 0.000000 0.000001 -0.000003 0.000001 0.000004 0.000001 -0.000000 -0.000001 0.000001 -0.000000 0.000001 0.000000 -0.000000 -0.000001 0.000000 -0.000000 -0.000001 0.000000 -0.000000 -0.000001 0.000001 -0.000000 0.000001 0.000000 -0.000000 -0.000001 0.000000 -0.000000 -0.000001 0.000000 -0.000000 -0.000001 0.000001 -0.000000 0.000001 0.000000 0.000000 0.000001 0.000000 0.000000 0.000001 0.000000 0.000000 0.000001 0.000000 
4.496689 55.672195 34.921982 -12.706349 -41.433191 -6.502192 -0.000000 -0.000001 -0.000000 -41.194148 3.556056 28.190998 51.291241 -7.354629 6.874320 -4.478843 -10.006465 -24.200159 0.000000 0.000000 0.000000 -0.000003 0.000003 0.000000 -25.283994 -6.958422 -36.421014 80.290991 6.925723 -8.926712 -29.300979 -14.535018 17.073868 -0.000001 -0.000000 0.000002 -0.000003 0.000000 -0.000001 19.348859 6.862021 -7.500218 1.352511 1.057873 -0.608381 1.352139 1.065430 -0.615881 5.139178 13.011478 -0.052974 2.198360 19.765680 -6.130644 0.000001 -0.000000 0.000000 0.000001 -0.000000 0.000000 0.000001 -0.000000 0.000000 0.000001 -0.000000 0.000000 -0.000001 -0.000000 0.000000 0.000001 -0.000000 0.000000 -0.000001 -0.000000 0.000000 0.000001 -0.000000 0.000000 0.000001 -0.000000 0.000000 0.720599 3.654620 -7.622851 -53.440821 2.217201 -44.400283 0.000065 -114.716879 0.000073 -8.688868 -9.634169 -11.046158 -6.141202 -11.690812 -6.761691 9.914137 42.595505 3.409866 0.000001 0.000004 -0.000001 0.255312 3.378234 -45.814341 5.654072 5.847739 -88.067428 0.000001 0.000002 -0.000003 -0.461478 3.841599 -39.722679 6.450751 5.820351 -95.892871 0.000002 0.000001 -0.000003 0.469721 4.966809 -39.799430 8.181045 5.368628 -113.503004 0.000000 -0.000001 0.000002 -3.762431 9.063705 -45.253818 5.342525 5.829004 -85.005311 -0.000002 0.000003 -0.000004 0.000001 -0.000000 0.000001 2.810631 14.537253 -6.138979 -46.080179 20.947446 84.878815 0.000032 114.352277 -0.000056 0.145111 19.111349 8.651102 -7.341084 13.749666 7.412332 9.855791 -44.489089 -3.903256 0.000001 0.000000 -0.000000 -0.124380 -2.384804 45.108868 4.500580 -4.654527 88.071164 -0.000001 0.000001 -0.000001 -0.761626 -2.932917 39.031065 5.133892 -4.632759 95.881642 -0.000000 -0.000002 -0.000001 0.154759 -4.068800 39.122675 6.509729 -4.273606 113.462870 0.000003 0.000000 -0.000000 -4.198877 -8.025531 44.637779 4.252926 -4.639636 85.014832 0.000000 -0.000001 0.000007 -0.000000 -0.000000 -0.000001 0.000001 -0.000001 -0.000000 0.000001 0.000001 -0.000001 0.000001 -0.000001 0.000000 0.000001 -0.000001 0.000000 0.000001 -0.000001 -0.000000 0.000001 0.000001 -0.000000 0.000001 -0.000001 0.000000 0.000001 -0.000001 0.000000 0.000001 -0.000001 -0.000000 0.000001 0.000001 -0.000000 -0.000000 -0.000001 -0.000000 -0.000000 -0.000001 -0.000000 -0.000000 -0.000001 -0.000000 
3.996753 55.982162 33.647728 -11.469943 -40.906140 -5.301751 0.000001 0.000000 0.000000 -40.802006 3.716615 28.002514 47.833447 -7.511291 6.618712 -3.227805 -10.387203 -24.958111 0.000000 -0.000002 -0.000000 0.000006 0.000000 0.000001 -24.450201 -8.231776 -35.677896 77.772024 6.793768 -7.514675 -32.428867 -15.085945 16.638986 -0.000000 -0.000001 0.000001 -0.000001 -0.000002 0.000000 17.613632 7.233940 -6.425308 1.638936 1.089200 -0.969848 1.644421 1.086869 -0.970827 5.394264 12.949658 -0.475063 2.388296 19.167879 -5.962653 0.000002 0.000000 -0.000000 0.000002 0.000000 -0.000000 0.000002 0.000000 -0.000000 0.000002 0.000000 -0.000000 -0.000000 0.000000 -0.000000 0.000002 0.000000 -0.000000 -0.000000 0.000000 -0.000000 0.000002 0.000000 -0.000000 0.000002 0.000000 -0.000000 0.718280 3.843467 -7.721462 -53.487372 1.962362 -44.508777 0.000103 -114.724515 0.000109 -8.343824 -8.919364 -11.544602 -6.141204 -11.690808 -6.761695 9.914137 42.595508 3.409862 0.000002 0.000007 -0.000001 0.255313 3.378234 -45.814344 5.654073 5.847741 -88.067435 0.000001 0.000001 0.000000 -0.461477 3.841596 -39.722679 6.450750 5.820352 -95.892871 -0.000001 -0.000001 0.000000 0.469722 4.966806 -39.799434 8.181041 5.368628 -113.503004 0.000000 -0.000000 -0.000001 -3.762431 9.063703 -45.253821 5.342526 5.829004 -85.005311 -0.000000 -0.000002 0.000001 0.000000 0.000000 -0.000001 2.691448 14.753630 -6.327798 -46.723056 20.456837 84.821592 0.000111 114.332251 -0.000111 -0.808696 18.412566 9.158090 -7.341084 13.749669 7.412327 9.855785 -44.489093 -3.903249 0.000002 -0.000003 0.000001 -0.124379 -2.384802 45.108868 4.500579 -4.654528 88.071164 0.000002 0.000001 -0.000001 -0.761626 -2.932914 39.031058 5.133894 -4.632758 95.881642 0.000001 -0.000000 -0.000003 0.154757 -4.068799 39.122668 6.509727 -4.273607 113.462870 -0.000000 0.000001 -0.000004 -4.198874 -8.025528 44.637776 4.252927 -4.639638 85.014832 -0.000001 -0.000001 0.000004 0.000002 0.000001 0.000000 -0.000000 0.000000 0.000000 -0.000000 0.000002 -0.000000 -0.000000 0.000000 0.000000 -0.000000 0.000000 0.000000 -0.000000 0.000000 0.000000 -0.000000 0.000002 -0.000000 -0.000000 0.000000 0.000000 -0.000000 0.000000 0.000000 -0.000000 0.000000 0.000000 -0.000000 0.000002 -0.000000 0.000001 0.000000 0.000000 0.000001 0.000000 0.000000 0.000001 0.000000 0.000000 
